<?xml version="1.0" encoding="UTF-8"?>
<svg id="Camada_2" data-name="Camada 2" xmlns="http://www.w3.org/2000/svg" viewBox="0 0 1000 1000">
  <defs>
    <style>
      .cls-1 {
        fill: #e8e8e8;
      }
    </style>
  </defs>
  <g id="Camada_1-2" data-name="Camada 1">
    <g>
      <rect class="cls-1" width="1000" height="1000"/>
      <g>
        <path d="M443.65,652.52c-2.12-2.31-4.87-4.53-7.9-6.03-2.14-1.06-4.84.27-5.7,2.32-8.22,19.66-10.32,49.35-11.7,71.15-3.95.74-8.24.12-11.71-1.74s-4.56-5.25-3.6-8.79l9.62-35.44c2.99-11.01,8.92-31.23,18.05-38.7-2.72-7.34-6.1-14.65-9.77-21.6l-23.85,10.39c-6.47,2.82-12.61,5.42-20.13,6.82,1.23-3.93,3.76-6.22,5.95-9.3-8.68,5.33-15.43,12.86-21.57,20.88-4.84,6.32-6.58-16.46-7.13-18.98-1.68,6.44-2.35,12.5-3.22,19.79-8.56-11.01-11.34-32.58-9.3-45.58,1.8-11.49,4.62-22.18,6.83-33.6l4.75-24.58c-4.71-1.32-8.23-4.53-7.7-10.02.52-5.42,2.48-10.6,4.87-15.48-6.79-1.83-12.62-5.41-16-11.21-2.69-4.63-2.41-9.47.97-13.44,4.25-4.99,8.09-10.09,11.85-15.63-2.55-10.94-4.22-21.66-4.15-32.9.01-1.65,2.11-3.19,5.05-3.14l8.84.37c-2.15-7.38-1.79-13.24.97-19.86,4.89-11.72,7.84-23.21,13.24-34.57-11.78-16.25-6.28-34.38,6.9-47.03,15.34-14.71,38.63-22.84,59.42-26.85,54.04-10.43,122.89-2.66,165.75,35.02,24.88-26.64,36.61-21.5,62.22-17.48,14.58,2.29,30.48,3.97,33.9,23.06.62,3.45.59,9.05-.63,13.81,6.23,8.06,9.01,17.57,6.53,27.91-4.56,18.94-24.13,28.22-43.04,23.95,2.86,4.1,5.58,8,9.06,11.33,8.87,8.49,14.4,6.94,16.37,8.76.6.55-.1,2.73-.86,3.3-3.84,2.91-8.62,3.06-13.89,2.67l4.56,7.06c.85,1.31,1.28,4.08.59,5.48-.65,1.31-3.23,2.93-4.97,2.85l-10.48-.48c-1.4,2.76-4.42,12.39-8.46,11.62-.96-.18-1.52-1.99-1.66-3.34-1.56-15.58-6.65-30.66-15.99-44.14l1.62,23.05c1.34,18.98-4.16,36.93-13.59,53.43-8.49,14.85-19.53,27.23-31.99,38.92-1.75,1.64-4.91,4.47-5,6.92.08,8.9,2.51,17.6,5.6,25.65,7.03,2.45,12.83,8.07,12.64,16.11,2.56.28,5.3.66,7.34,1.71l11.95,29.82c1.57,3.92.67,6.96-2.44,9.57-8.87,7.47-17.54,14.51-27.21,21.26-31.82,22.22-65.83,40.63-102.06,54.69-21.47,8.33-46.61,16.05-69.45,17.86.75-10.48,5.91-19.23,8.69-28.51-3.29-14.3-2.3-28.79,11-39.11ZM677.58,356.5c-3.03-6.12-9.73-8.74-15.79-10.23-12.82-3.14-30.14,2.74-27.44,6.44.49.67,2.41,1.3,3.22,1.01,13.37-4.85,26.43-3.73,40.01,2.79ZM637.13,397.77c.23-14.62-4.64-28.41-13.54-39.91-2.52-3.25-13.27-13.9-16.48-7.54,13.5,15.26,20.75,35.01,23.01,55.31.15,1.35,1.89,2.91,2.89,2.92,3.49.03,4.08-7.82,4.12-10.78ZM484.26,435.37c-4.37-3.82-9.01-6.62-13.69-9.96l-17.39-12.36c-2.41-1.72-3.05-4.62-2.28-7.49,2.42-9.09,6.74-16.68,12.56-24.63l-10.32-2.38-1.35-2.65-15.33-.26c-.17-.79-1.18-2.86-1.97-2.77l-15.65,1.66c-.63.07-2.2.04-2.29-.38l-.48-2.1c-6.3,1.15-12.49,2.95-18.84,4.97l-1.78-2.45c-4.2,2.58-10.33,3.58-13.32,7.76-6.47,9.05-9.93,19.76-13.41,30.26l-5.51,16.6c.37,2.64,1.92,6.98,3.18,8.95,3.57,2.41,5.7-.39,8.08-1.27,7.97-2.97,8.75-2.66,17.65-3.59,8.03-.85,14.95-.5,22.97-.16,4.58.2,5.16.31,10.66.71l58.49,1.52ZM692.2,381.23c1.06-1.99,1.52-4.24.78-6.51-4.37,6.3-8.82,10.96-15.41,14.42-17.83,9.35-30.11,2.7-32.9,5.66-3.39,3.59,33.12,13.44,47.53-13.57ZM409.27,475.69c1.09-12.04.93-19.25.27-31.39-4.3-1.18-29.43-3.52-27.62,3.02.43,9.93,2.46,19.26,6.67,28.2,3.79,8.04,16.29,4.5,20.68.17ZM457.88,639.99l59.79-32.78,64.23-34.94-4.36-18.17c-2.2,1.41-5.18,1.51-7.33-.38-10.56-9.26-17.13-23.23-22.45-36.48-8.21,5.68-17.05,9.91-27.12,7.39-1.93-1.26-3.06-2.96-2.6-5.09,1.19-5.49,6.76-.69,14.76-3.76,11.5-4.42,20.65-12.85,25.97-24.14s6.96-24.31,3.66-36.13c-3.21-11.49-13.78-17.39-25.09-15-7.96,1.68-14.22,6.65-19.03,13.21l-9.92.64c-.14,8.28-.27,15.95-.87,24.3-1.36,19.14-1.83,37.7-1.57,56.89s-3.26,40.81-20.08,52.56c.5-4.58,1.25-8.79,1.12-13.6-14.81,31.98-21.77,20.76-46.86,36.37.58,11.24,4.43,27.89,11.82,36.09,2.36-2.22,3.24-5.52,5.9-6.98ZM358.59,453.23c.02-3.54-4.27-5.58-6.82-6.07-.17,6,.24,11.2,1.59,16.99,2.28-3.04,5.2-6.78,5.22-10.91ZM365.82,509.79c-1.84-1.58-2.99-2.6-4.3-4.04,5.44-3.12,11.31-2.3,16.29.56,6.51,3.75,6.75-4.22,24.79,6.96,8.92,5.53,17.07,11.35,25.54,17.41,2.61,1.86,4.92,3.35,7.73,4.78l-5.22-7.26c33.99-12.78,58.63-35.59,51.97-75.48l-55.96-1.43c-1.86-.05-5.37.8-5.52,2.96l-1.53,21.77c-.86,12.22-18.71,15.91-28.59,13.65-4.02-.92-7.47-4.15-9.33-7.73-4.08-7.84-6.99-15.92-8.48-24.66-.28-1.66-.95-3.44-2.13-4.28-.84-.6-3.1-.7-4.03-.4-2.17,13.96-16.93,32.34-25.93,43.04,1.5,7.15,7.93,8.52,13.27,10.97,3.53,1.62,6.84,6.96,11.44,3.19ZM403.2,541.74c-7.91.38-14.56-.9-21.42-3.66-2.88-1.16-15.7-4.92-16.18-2.35l-.47,2.49c-.97,5.19.71,10.79,6.3,12.06,9.19,2.08,27.09,1.68,31.76-8.53ZM507.61,661.17c22.23-24.21,61.42-60.66,91.04-74.32.69-3.99-.98-8.31-5.09-10.26-1.27-.6-4.31-.46-5.65.24l-17.61,9.23-108.6,59.28c-1.81,1.63-3.24,4.19-4.42,6.23l27.99,33.93,22.34-24.33ZM463.46,710.87l18.71-21.73-13.08-14.45c-1.81,5.97-4.65,10.8-8.64,15.19l-4.77,5.24,7.78,15.75Z"/>
        <path d="M531.61,471.99c6.71,7.73,7.17,18.6.78,26.09-2.01,2.35-4.64,3.93-7.82,3.3-1.03-.2-2.57-1.7-2.75-2.64-.23-1.21.9-3.13,2.18-3.69,4-1.76,5.72-6.31,3.65-10.25-2.36-4.49-3.39-9.04-2.44-14.22,1.39-7.57,5.55-14.62,12.61-17.88,4.21-1.95,8.97-1.98,12.43.67,4.12,3.16,5.68,8.85,3.89,13.78-.14.37-1.69.37-1.76-.02l-.34-1.76c-.6-3.13-1.78-6.02-4.32-7.39-2.77-1.48-5.91-1.16-8.63.62-6.13,4.02-2.01,6.95-6.99,10.24-.9.59-1.32,2.18-.47,3.15Z"/>
      </g>
    </g>
  </g>
</svg>